<?xml version="1.0" encoding="UTF-8"?>
<svg width="224px" height="224px" viewBox="0 0 224 224" version="1.1" xmlns="http://www.w3.org/2000/svg" xmlns:xlink="http://www.w3.org/1999/xlink">
    <title>Account</title>
    <g id="Account" stroke="none" stroke-width="1" fill="none" fill-rule="evenodd">
        <g transform="translate(77.000000, 78.000000)" id="Group-19">
            <path d="M4.2244898,36.6122449 C4.2244898,54.4995081 18.7249817,69 36.6122449,69 C54.4995081,69 69,54.4995081 69,36.6122449 C69,18.7249817 54.4995081,4.2244898 36.6122449,4.2244898 C18.7249817,4.2244898 4.2244898,18.7249817 4.2244898,36.6122449 Z" id="Path" fill-opacity="0.5" fill="#FFC599"></path>
            <g id="streamline-icon-single-neutral-circle@140x140" stroke="#F26B1C" stroke-linecap="round" stroke-linejoin="round" stroke-width="2">
                <path d="M17.2734694,25.9102041 C17.2734694,34.2575936 24.0403656,41.0244898 32.3877551,41.0244898 C40.7351446,41.0244898 47.5020408,34.2575936 47.5020408,25.9102041 C47.5020408,17.5628146 40.7351446,10.7959184 32.3877551,10.7959184 C24.0403656,10.7959184 17.2734694,17.5628146 17.2734694,25.9102041 L17.2734694,25.9102041 Z" id="Path"></path>
                <path d="M52.2896707,57.9409741 C47.0228397,52.6410679 39.8596033,49.6608153 32.3877551,49.6608153 C24.9159069,49.6608153 17.7526705,52.6410679 12.4858395,57.9409741" id="Path"></path>
                <path d="M0,32.3877551 C0,50.2750183 14.5004919,64.7755102 32.3877551,64.7755102 C50.2750183,64.7755102 64.7755102,50.2750183 64.7755102,32.3877551 C64.7755102,14.5004919 50.2750183,0 32.3877551,0 C14.5004919,0 0,14.5004919 0,32.3877551 Z" id="Path"></path>
            </g>
        </g>
    </g>
</svg>