<?xml version="1.0" encoding="UTF-8"?>
<svg width="224px" height="224px" viewBox="0 0 224 224" version="1.1" xmlns="http://www.w3.org/2000/svg" xmlns:xlink="http://www.w3.org/1999/xlink">
    <title>Shop</title>
    <g id="Shop" stroke="none" stroke-width="1" fill="none" fill-rule="evenodd">
        <g transform="translate(75.000000, 79.000000)" id="Group-20">
            <path d="M62.1222921,12.6916739 L15.6775725,12.6916739 C13.3708359,12.5976032 11.3506138,14.2253169 10.9518148,16.4992655 L4.3699797,62.2923834 C4.30102981,63.5638683 4.77813797,64.8043179 5.6813585,65.7018815 C6.58457903,66.5994452 7.82800169,67.0687506 9.09902825,66.9918137 L68.7008363,66.9918137 C69.971594,67.0688444 71.2147517,66.5994531 72.1174735,65.7017604 C73.0201953,64.8040676 73.4965242,63.5635517 73.4265939,62.2923834 L66.8447588,16.4992655 C66.4461173,14.2266041 64.4278008,12.5992925 62.1222921,12.6916739 Z" id="Path" fill-opacity="0.5" fill="#FFC599" transform="translate(38.898380, 39.843898) scale(1, -1) translate(-38.898380, -39.843898) "></path>
            <g id="streamline-icon-shopping-bag-heart@140x140-(2)" stroke="#F26B1C" stroke-linejoin="round" stroke-width="2">
                <path d="M57.7588725,10.1473701 L11.3141529,10.1473701 C9.00741638,10.0532994 6.98719429,11.6810131 6.58839528,13.9549617 L0.00656014835,59.7480796 C-0.0623897432,61.0195645 0.414718414,62.2600141 1.31793895,63.1575777 C2.22115948,64.0551414 3.46458214,64.5244468 4.73560869,64.4475099 L64.3374168,64.4475099 C65.6081745,64.5245406 66.8513321,64.0551493 67.7540539,63.1574566 C68.6567758,62.2597639 69.1331047,61.0192479 69.0631744,59.7480796 L62.4813393,13.9549617 C62.0826978,11.6823003 60.0643813,10.0549887 57.7588725,10.1473701 Z" id="Path" stroke-linecap="round" transform="translate(34.534960, 37.299595) scale(1, -1) translate(-34.534960, -37.299595) "></path>
                <path d="M46.6125347,10.060335 C45.4974575,4.23620976 40.4120932,0.0186410131 34.4822126,0 C28.5831808,0.0258748608 23.5212933,4.20923025 22.3847996,9.99780757" id="Path" stroke-linecap="square"></path>
            </g>
        </g>
    </g>
</svg>